<svg width="35" height="35" viewBox="0 0 35 35" fill="none" xmlns="http://www.w3.org/2000/svg">
<path d="M5.83337 27.7084V24.7917H8.75004V14.5834C8.75004 12.5661 9.35768 10.7796 10.573 9.22404C11.7882 7.64418 13.3681 6.61119 15.3125 6.12508V5.10425C15.3125 4.49661 15.5191 3.98619 15.9323 3.573C16.3698 3.1355 16.8924 2.91675 17.5 2.91675C18.1077 2.91675 18.6181 3.1355 19.0313 3.573C19.4688 3.98619 19.6875 4.49661 19.6875 5.10425V6.12508C21.632 6.61119 23.2118 7.64418 24.4271 9.22404C25.6424 10.7796 26.25 12.5661 26.25 14.5834V24.7917H29.1667V27.7084H5.83337ZM17.5 32.0834C16.698 32.0834 16.0052 31.8039 15.4219 31.2449C14.8629 30.6615 14.5834 29.9688 14.5834 29.1667H20.4167C20.4167 29.9688 20.125 30.6615 19.5417 31.2449C18.9827 31.8039 18.3021 32.0834 17.5 32.0834ZM11.6667 24.7917H23.3334V14.5834C23.3334 12.9792 22.7622 11.606 21.6198 10.4636C20.4775 9.32126 19.1042 8.75008 17.5 8.75008C15.8959 8.75008 14.5226 9.32126 13.3802 10.4636C12.2379 11.606 11.6667 12.9792 11.6667 14.5834V24.7917Z" fill="#FEF7FF"/>
</svg>
