<svg width="40" height="30" viewBox="0 0 40 30" fill="none" xmlns="http://www.w3.org/2000/svg">
<path d="M20 15C18.1666 15 16.5972 14.5104 15.2916 13.5312C13.9861 12.5521 13.3333 11.375 13.3333 10C13.3333 8.625 13.9861 7.44792 15.2916 6.46875C16.5972 5.48958 18.1666 5 20 5C21.8333 5 23.4027 5.48958 24.7083 6.46875C26.0138 7.44792 26.6666 8.625 26.6666 10C26.6666 11.375 26.0138 12.5521 24.7083 13.5312C23.4027 14.5104 21.8333 15 20 15ZM6.66663 25V21.5C6.66663 20.7917 6.90968 20.1406 7.39579 19.5469C7.8819 18.9531 8.52774 18.5 9.33329 18.1875C11.0555 17.5417 12.8055 17.0573 14.5833 16.7344C16.3611 16.4115 18.1666 16.25 20 16.25C21.8333 16.25 23.6388 16.4115 25.4166 16.7344C27.1944 17.0573 28.9444 17.5417 30.6666 18.1875C31.4722 18.5 32.118 18.9531 32.6041 19.5469C33.0902 20.1406 33.3333 20.7917 33.3333 21.5V25H6.66663ZM9.99996 22.5H30V21.5C30 21.2708 29.9236 21.0625 29.7708 20.875C29.618 20.6875 29.4166 20.5417 29.1666 20.4375C27.6666 19.875 26.1527 19.4531 24.625 19.1719C23.0972 18.8906 21.5555 18.75 20 18.75C18.4444 18.75 16.9027 18.8906 15.375 19.1719C13.8472 19.4531 12.3333 19.875 10.8333 20.4375C10.5833 20.5417 10.3819 20.6875 10.2291 20.875C10.0763 21.0625 9.99996 21.2708 9.99996 21.5V22.5ZM20 12.5C20.9166 12.5 21.7013 12.2552 22.3541 11.7656C23.0069 11.276 23.3333 10.6875 23.3333 10C23.3333 9.3125 23.0069 8.72396 22.3541 8.23438C21.7013 7.74479 20.9166 7.5 20 7.5C19.0833 7.5 18.2986 7.74479 17.6458 8.23438C16.993 8.72396 16.6666 9.3125 16.6666 10C16.6666 10.6875 16.993 11.276 17.6458 11.7656C18.2986 12.2552 19.0833 12.5 20 12.5Z" fill="#FEF7FF"/>
</svg>
